<?xml version="1.0" encoding="UTF-8"?>
<svg version="1.1" xmlns="http://www.w3.org/2000/svg" width="300" height="300">
<path d="M0 0 C99 0 198 0 300 0 C300 99 300 198 300 300 C201 300 102 300 0 300 C0 201 0 102 0 0 Z " fill="#F3F5F6" transform="translate(0,0)"/>
<path d="M0 0 C99 0 198 0 300 0 C300 99 300 198 300 300 C201 300 102 300 0 300 C0 201 0 102 0 0 Z M124 12 C122.71738281 12.24492187 121.43476562 12.48984375 120.11328125 12.7421875 C93.92692256 18.02593666 71.27713843 31.80474179 52 50 C51.32453125 50.62261719 50.6490625 51.24523438 49.953125 51.88671875 C32.91508215 68.14101163 21.12538855 90.45552014 15 113 C14.82194824 113.65468262 14.64389648 114.30936523 14.46044922 114.98388672 C8.71016069 136.36006864 8.01135163 158.34651643 13 180 C13.24943359 181.10069824 13.24943359 181.10069824 13.50390625 182.22363281 C21.8126455 217.72041328 43.81997823 248.7491331 74.73388672 268.08447266 C106.10561948 287.29689348 143.10200861 295.70348988 179.51171875 287.42919922 C215.01678662 278.67748844 247.54274961 258.58501388 267.21484375 227.05273438 C279.89081386 205.93286724 289.12637251 182.84699359 290 158 C290.03254883 157.22156738 290.06509766 156.44313477 290.09863281 155.64111328 C291.46682313 119.20440838 279.81587736 84.11438562 254.875 57.125 C252.92956887 55.07047084 250.96573368 53.03524336 249 51 C248.40832031 50.34515625 247.81664062 49.6903125 247.20703125 49.015625 C225.66000834 25.75148716 189.40293112 11.10115378 158.15991211 9.88989258 C146.65289586 9.66261007 135.29046569 9.52887921 124 12 Z " fill="#F4F5F6" transform="translate(0,0)"/>
<path d="M0 0 C6.61962168 4.41308112 10.31319768 7.6287457 12.19946289 15.51660156 C12.88200413 19.09886621 13.00823944 22.61022889 13 26.25 C12.99838867 26.99467529 12.99677734 27.73935059 12.99511719 28.5065918 C12.86681119 34.23570607 11.98914575 37.98412686 8.625 42.75 C7.8825 43.41 7.14 44.07 6.375 44.75 C3.62406143 47.8939298 4.35340157 50.67602362 4.625 54.75 C9.36647593 56.59746697 14.05838981 58.20650243 18.96826172 59.53637695 C35.41152737 64.02411903 35.41152737 64.02411903 38.72265625 69.59765625 C41.84067301 77.12440369 41.625 84.65948655 41.625 92.75 C26.445 92.75 11.265 92.75 -4.375 92.75 C-4.375 94.73 -4.375 96.71 -4.375 98.75 C-3.56147064 98.74111755 -2.74794128 98.73223511 -1.90975952 98.7230835 C5.77016535 98.64281838 13.44988584 98.58197542 21.13012123 98.54275131 C25.07830373 98.52190753 29.02613863 98.49364951 32.97412109 98.44824219 C36.78669001 98.40466848 40.59892532 98.38083876 44.41172409 98.37049103 C45.86376571 98.36312019 47.31578979 98.34872644 48.76768875 98.32707977 C50.80727333 98.29789024 52.84549289 98.29405014 54.88525391 98.29589844 C56.62399277 98.28257477 56.62399277 98.28257477 58.39785767 98.26898193 C62.36748178 98.86066979 64.51102931 100.26061412 67.625 102.75 C71.94417073 109.5167008 71.48206285 117.93226789 70.109375 125.6484375 C69.94953125 126.34195313 69.7896875 127.03546875 69.625 127.75 C67.315 127.75 65.005 127.75 62.625 127.75 C62.58741577 126.84906616 62.58741577 126.84906616 62.54907227 125.92993164 C62.4334472 123.22388563 62.31057064 120.51821717 62.1875 117.8125 C62.14818359 116.86697266 62.10886719 115.92144531 62.06835938 114.94726562 C62.00551758 113.59858398 62.00551758 113.59858398 61.94140625 112.22265625 C61.90474854 111.39000244 61.86809082 110.55734863 61.83032227 109.69946289 C61.83132897 107.74661142 61.83132897 107.74661142 60.625 106.75 C58.60085009 106.62624831 56.57242263 106.57202689 54.54467773 106.54467773 C53.24340439 106.52473251 51.94213104 106.50478729 50.60142517 106.48423767 C49.1704826 106.46725201 47.73953875 106.45037325 46.30859375 106.43359375 C44.8527008 106.41303094 43.39681391 106.39203466 41.94093323 106.37062073 C38.10227353 106.31533039 34.26355935 106.26595198 30.42480469 106.21777344 C26.51036712 106.16760909 22.59600904 106.11189664 18.68164062 106.05664062 C10.99615907 105.94897394 3.31061123 105.84806052 -4.375 105.75 C-4.705 113.01 -5.035 120.27 -5.375 127.75 C-7.685 127.75 -9.995 127.75 -12.375 127.75 C-12.375 120.49 -12.375 113.23 -12.375 105.75 C-14.78167969 105.8221875 -17.18835938 105.894375 -19.66796875 105.96875 C-39.57869472 106.54887735 -59.45508525 106.8898434 -79.375 106.75 C-79.375 113.68 -79.375 120.61 -79.375 127.75 C-81.685 127.75 -83.995 127.75 -86.375 127.75 C-88.50113634 120.76659283 -88.78638476 111.72000437 -85.625 105.0625 C-84.00980242 102.17180909 -82.2067137 100.47409911 -79.375 98.75 C-76.31243896 98.38923645 -76.31243896 98.38923645 -72.67871094 98.40942383 C-72.01488403 98.40898575 -71.35105713 98.40854767 -70.66711426 98.40809631 C-68.48089818 98.41018029 -66.2954565 98.43349145 -64.109375 98.45703125 C-62.5905194 98.46262863 -61.07165837 98.46689806 -59.55279541 98.46989441 C-55.56108568 98.4813321 -51.569705 98.51078973 -47.578125 98.54400635 C-43.50264944 98.5747306 -39.42712056 98.58840476 -35.3515625 98.60351562 C-27.35922423 98.63566072 -19.36715309 98.68684376 -11.375 98.75 C-11.375 96.77 -11.375 94.79 -11.375 92.75 C-26.225 92.75 -41.075 92.75 -56.375 92.75 C-56.375 79.12765957 -56.375 79.12765957 -55.125 74.8125 C-54.89296875 73.95785156 -54.6609375 73.10320312 -54.421875 72.22265625 C-52.67062918 68.08631818 -50.66126358 65.4348936 -46.66796875 63.30859375 C-39.31619655 60.65455775 -31.9844046 58.4814213 -24.39453125 56.64453125 C-21.29415463 55.98724168 -21.29415463 55.98724168 -19.375 53.75 C-19.24116914 47.45994944 -22.19941732 43.47558812 -25.68359375 38.3984375 C-29.59176551 32.27894453 -30.26431423 26.89201841 -29.375 19.75 C-27.12475757 11.99487265 -23.59689862 4.02886657 -16.52734375 -0.41015625 C-11.2917302 -2.45309076 -5.17073435 -1.9150868 0 0 Z " fill="#44B0CD" transform="translate(162.375,37.25)"/>
<path d="M0 0 C1.24265625 0.25652344 2.4853125 0.51304688 3.765625 0.77734375 C31.31713509 6.88097907 54.82252291 20.5474622 75 40 C75.65484375 40.60328125 76.3096875 41.2065625 76.984375 41.828125 C99.20537746 62.82595301 113.61507642 96.27174516 115.13623047 126.72753906 C115.31405364 133.15788993 115.20874857 139.57184873 115 146 C114.9690625 147.20527344 114.938125 148.41054687 114.90625 149.65234375 C113.20021505 183.47448669 95.83881288 213.99698977 73 238 C72.35675781 238.70769531 71.71351563 239.41539062 71.05078125 240.14453125 C48.9565387 263.676577 14.47737866 276.89838896 -17.32568359 278.08691406 C-30.50466596 278.4791309 -43.10307285 277.81258235 -56 275 C-56.69335449 274.84966309 -57.38670898 274.69932617 -58.10107422 274.54443359 C-76.4082889 270.34784999 -94.20565985 261.49719343 -109 250 C-109.83917969 249.37996094 -110.67835937 248.75992188 -111.54296875 248.12109375 C-140.79522655 225.84473209 -158.07422174 193.17169389 -164.3125 157.3125 C-168.91079924 119.4649601 -158.67706905 81.86313908 -135.34277344 51.66992188 C-131.48636801 46.87395585 -127.26450441 42.43082674 -123 38 C-122.14728516 37.05253906 -122.14728516 37.05253906 -121.27734375 36.0859375 C-92.04250836 4.53325071 -41.30157359 -8.64566433 0 0 Z M-114 35 C-115.29550781 36.11375 -115.29550781 36.11375 -116.6171875 37.25 C-142.18373037 59.63043874 -158.6459761 92.04252876 -161 126 C-163.36861008 166.26637139 -150.65171489 201.51343779 -124.12890625 231.578125 C-103.03550223 254.94995613 -71.58435964 271.52654592 -40 274 C-2.37183782 275.76214123 32.80223143 267.8780987 62 243 C62.87914062 242.26007813 63.75828125 241.52015625 64.6640625 240.7578125 C75.05562982 231.71747065 83.54656732 221.5290925 91 210 C91.60585938 209.07960937 92.21171875 208.15921875 92.8359375 207.2109375 C102.04997004 192.41011601 107.17474838 176.09245672 110 159 C110.19335938 157.94554687 110.38671875 156.89109375 110.5859375 155.8046875 C114.5848854 119.05963791 105.44682524 83.404692 82.59912109 54.20996094 C60.38501343 26.57685396 31.06879791 8.78374423 -4 3 C-5.06992188 2.80792969 -6.13984375 2.61585937 -7.2421875 2.41796875 C-45.9166719 -1.88366309 -84.69493635 9.19003568 -114 35 Z " fill="#5AB2C9" transform="translate(175,12)"/>
<path d="M0 0 C1.876875 -0.04125 3.75375 -0.0825 5.6875 -0.125 C6.74324219 -0.14820313 7.79898438 -0.17140625 8.88671875 -0.1953125 C13.17063107 0.07343984 15.95267383 0.95267383 19 4 C19.33 3.34 19.66 2.68 20 2 C23.61432397 -0.60231326 27.72531039 -0.57813425 32 0 C34.5 1.3125 34.5 1.3125 36 3 C36 3.99 36 4.98 36 6 C35.01 6 34.02 6 33 6 C32.505 5.01 32.505 5.01 32 4 C30.10466658 3.53476937 30.10466658 3.53476937 27.9375 3.375 C26.638125 3.25125 25.33875 3.1275 24 3 C24 4.65 24 6.3 24 8 C24.60328125 8.10957031 25.2065625 8.21914062 25.828125 8.33203125 C33.76625659 9.90685413 33.76625659 9.90685413 37 13 C36.52 18.4 36.52 18.4 34.375 20.875 C30.53694497 22.69302606 27.02014071 22.68386086 22.9921875 21.3203125 C21.30342059 20.60241564 19.64796576 19.8071669 18 19 C18 19.99 18 20.98 18 22 C16.35 22 14.7 22 13 22 C12.319375 20.329375 12.319375 20.329375 11.625 18.625 C10.27534014 15.03800992 10.27534014 15.03800992 8 13 C6.01178687 12.60235737 4.01055661 12.26224651 2 12 C2 14.97 2 17.94 2 21 C1.34 21 0.68 21 0 21 C0 14.07 0 7.14 0 0 Z " fill="#DEF2F7" transform="translate(197,210)"/>
<path d="M0 0 C2.75569447 2.18159145 4.43588747 3.87177494 6 7 C6.04227317 11.37950088 5.78687799 14.95082935 3.125 18.5 C-0.81202364 21.27907551 -4.29083092 21.40596285 -9 21 C-12.40918784 18.87872756 -14.78269305 16.87324937 -16 13 C-16.4375 9.5625 -16.4375 9.5625 -16 6 C-11.29593068 0.3056003 -7.22249315 -1.14761549 0 0 Z " fill="#38495C" transform="translate(159,172)"/>
<path d="M0 0 C3.11059963 1.28227874 3.81561783 2.18329667 6 5 C6.93203257 9.33121016 6.46240839 12.85614765 4.8125 16.9375 C1.77920134 20.38918468 -0.9953788 20.83560744 -5.4375 21.5625 C-9.82204274 20.87020378 -11.26991003 19.60987058 -13.890625 16.13671875 C-15.83290398 12.39578001 -15.9807229 9.06733917 -15 5 C-11.37838162 -0.91531001 -6.37392418 -1.23005554 0 0 Z " fill="#38495B" transform="translate(84,172)"/>
<path d="M0 0 C3.01539095 1.73224587 4.56351395 2.85842109 5.8125 6.125 C6.09252799 10.41876245 6.07516087 14.69912815 6 19 C-2.01701571 22.84816754 -2.01701571 22.84816754 -7 22 C-10.42161469 19.9134546 -12.70395114 17.88814659 -14 14 C-14.53756448 8.30181648 -13.60129241 5.44865533 -10 1 C-6.79091256 -0.60454372 -3.48131162 -0.48018091 0 0 Z " fill="#E0F2F7" transform="translate(167,210)"/>
<path d="M0 0 C2.87029869 1.79393668 4.49131638 2.98263276 6 6 C6.42068924 9.05901174 6.49028455 11.94758326 6 15 C3.5625 18 3.5625 18 1 20 C0.67 20.33 0.34 20.66 0 21 C-6.79355532 21.69087003 -6.79355532 21.69087003 -9.828125 19.953125 C-13.61755325 16.82592693 -14.87063282 15.10886154 -15.4375 10.25 C-15.37622964 6.89238404 -14.76252746 5.05251805 -12.5625 2.5 C-8.74136921 -0.8140613 -4.83606744 -1.06874419 0 0 Z " fill="#38495B" transform="translate(233,172)"/>
<path d="M0 0 C1.8975 -0.061875 3.795 -0.12375 5.75 -0.1875 C7.35101563 -0.23970703 7.35101563 -0.23970703 8.984375 -0.29296875 C12.33624266 0.03266606 13.67946555 0.59021422 16 3 C16.25 6.1875 16.25 6.1875 16 9 C14.02 9.99 14.02 9.99 12 11 C12.3609375 11.55429688 12.721875 12.10859375 13.09375 12.6796875 C13.5578125 13.40414062 14.021875 14.12859375 14.5 14.875 C14.9640625 15.59429687 15.428125 16.31359375 15.90625 17.0546875 C17 19 17 19 17 21 C16.01 21 15.02 21 14 21 C12.60546875 19.28515625 12.60546875 19.28515625 11.1875 17.0625 C8.71491627 13.52025601 8.71491627 13.52025601 4.625 12 C3.75875 12 2.8925 12 2 12 C2 14.97 2 17.94 2 21 C1.34 21 0.68 21 0 21 C0 14.07 0 7.14 0 0 Z " fill="#5FB0C5" transform="translate(197,210)"/>
<path d="M0 0 C2.475 0.495 2.475 0.495 5 1 C6.65 5.95 8.3 10.9 10 16 C11.98 10.72 13.96 5.44 16 0 C17.32 0 18.64 0 20 0 C20 6.93 20 13.86 20 21 C19.34 21 18.68 21 18 21 C17.67 16.05 17.34 11.1 17 6 C15.35 10.95 13.7 15.9 12 21 C10.68 20.67 9.36 20.34 8 20 C6.1969792 16.12127934 5.21309037 12.11584233 4 8 C3.67 12.29 3.34 16.58 3 21 C2.01 21 1.02 21 0 21 C0 14.07 0 7.14 0 0 Z " fill="#6FB7CA" transform="translate(68,210)"/>
<path d="M0 0 C0.99 0 1.98 0 3 0 C4.33912585 3.12254943 5.67030658 6.24842358 7 9.375 C7.3815625 10.26445312 7.763125 11.15390625 8.15625 12.0703125 C8.5171875 12.92109375 8.878125 13.771875 9.25 14.6484375 C9.58515625 15.43395996 9.9203125 16.21948242 10.265625 17.02880859 C11 19 11 19 11 21 C10.01 21 9.02 21 8 21 C7.34 19.35 6.68 17.7 6 16 C3.03 16 0.06 16 -3 16 C-3.99 18.475 -3.99 18.475 -5 21 C-5.99 21 -6.98 21 -8 21 C-2.92307692 2.92307692 -2.92307692 2.92307692 0 0 Z " fill="#67B3C8" transform="translate(140,210)"/>
<path d="M0 0 C1.32 0 2.64 0 4 0 C5.17538461 2.74656201 6.34049752 5.49674122 7.5 8.25 C7.83386719 9.02730469 8.16773437 9.80460938 8.51171875 10.60546875 C8.82753906 11.35957031 9.14335938 12.11367187 9.46875 12.890625 C9.90864258 13.92751465 9.90864258 13.92751465 10.35742188 14.98535156 C11 17 11 17 11 21 C10.34 21 9.68 21 9 21 C8.34 19.02 7.68 17.04 7 15 C3.7 15 0.4 15 -3 15 C-3.33 16.98 -3.66 18.96 -4 21 C-4.99 21 -5.98 21 -7 21 C-6.26951699 16.31196344 -4.63363115 12.09114445 -2.9375 7.6875 C-2.51500977 6.57665039 -2.51500977 6.57665039 -2.08398438 5.44335938 C-1.39281425 3.62757345 -0.69688311 1.81360101 0 0 Z " fill="#66B3C8" transform="translate(98,210)"/>
<path d="M0 0 C4.95 0 9.9 0 15 0 C15 0.99 15 1.98 15 3 C11.04 3 7.08 3 3 3 C3 4.98 3 6.96 3 9 C6.63 9 10.26 9 14 9 C14 9.99 14 10.98 14 12 C10.37 12 6.74 12 3 12 C3 14.31 3 16.62 3 19 C6.96 19 10.92 19 15 19 C15 19.66 15 20.32 15 21 C10.05 21 5.1 21 0 21 C0 14.07 0 7.14 0 0 Z " fill="#72BACE" transform="translate(177,210)"/>
<path d="M0 0 C0.99 0 1.98 0 3 0 C3 6.93 3 13.86 3 21 C-2.10618352 19.72345412 -3.20021883 17.18575104 -5.75 12.9375 C-6.16121094 12.27427734 -6.57242188 11.61105469 -6.99609375 10.92773438 C-8.00824336 9.29181814 -9.00557507 7.64675068 -10 6 C-10.33 10.95 -10.66 15.9 -11 21 C-11.66 21 -12.32 21 -13 21 C-13 14.4 -13 7.8 -13 1 C-7.95425077 2.26143731 -7.46529723 3.76327939 -4.75 8.0625 C-4.04359375 9.16722656 -3.3371875 10.27195313 -2.609375 11.41015625 C-2.07828125 12.26480469 -1.5471875 13.11945313 -1 14 C-0.67 9.38 -0.34 4.76 0 0 Z " fill="#5AAAC0" transform="translate(126,210)"/>
<path d="M0 0 C3 1.8125 3 1.8125 5 4 C5 4.99 5 5.98 5 7 C4.01 7 3.02 7 2 7 C1.67 6.01 1.34 5.02 1 4 C-3.89379245 2.77422398 -3.89379245 2.77422398 -8.4375 4.4375 C-10.75417769 8.23685141 -10.49132585 10.57806732 -10 15 C-9.10242444 17.14780077 -9.10242444 17.14780077 -7 18 C-2.34608843 18.38027273 -2.34608843 18.38027273 2 17 C2.65213292 14.97536745 2.65213292 14.97536745 3 13 C1.02 13 -0.96 13 -3 13 C-3 12.34 -3 11.68 -3 11 C-0.36 11 2.28 11 5 11 C5 13.64 5 16.28 5 19 C0.82347526 21.38658556 -2.17404668 22.80432555 -7 22 C-10.42290543 19.91753306 -12.70461236 17.88616291 -14 14 C-14.53756448 8.30181648 -13.60129241 5.44865533 -10 1 C-6.79532561 -0.60233719 -3.47697993 -0.49196274 0 0 Z " fill="#66B2C6" transform="translate(167,210)"/>
<path d="M0 0 C2.5 1.3125 2.5 1.3125 4 3 C4 3.99 4 4.98 4 6 C3.01 6 2.02 6 1 6 C0.67 5.34 0.34 4.68 0 4 C-1.89533342 3.53476937 -1.89533342 3.53476937 -4.0625 3.375 C-5.361875 3.25125 -6.66125 3.1275 -8 3 C-8 4.65 -8 6.3 -8 8 C-7.39671875 8.10957031 -6.7934375 8.21914062 -6.171875 8.33203125 C1.76625659 9.90685413 1.76625659 9.90685413 5 13 C4.52 18.4 4.52 18.4 2.375 20.875 C-1.02207101 22.4841389 -3.28435707 22.52149375 -7 22 C-9.9375 19.625 -9.9375 19.625 -12 17 C-12 16.34 -12 15.68 -12 15 C-11.01 15 -10.02 15 -9 15 C-8.01 16.485 -8.01 16.485 -7 18 C-4.79274927 18.36362818 -4.79274927 18.36362818 -2.375 18.1875 C-1.55773437 18.16042969 -0.74046875 18.13335937 0.1015625 18.10546875 C1.04128906 18.05326172 1.04128906 18.05326172 2 18 C1.74324087 15.50494008 1.74324087 15.50494008 0 13 C-3.24589962 11.62425447 -6.56698276 10.77907956 -10 10 C-11.31690141 3.65492958 -11.31690141 3.65492958 -10.0625 1.0625 C-6.79813141 -0.61914442 -3.54735515 -0.53531516 0 0 Z " fill="#6DB6C9" transform="translate(229,210)"/>
<path d="M0 0 C0.95238875 3.18004925 1.07992137 5.95078208 0.9921875 9.26171875 C0.97357666 10.29079346 0.95496582 11.31986816 0.93579102 12.38012695 C0.91572998 13.47156006 0.89566895 14.56299316 0.875 15.6875 C0.77464315 24.31631931 1.14344084 32.43882372 3.02099609 40.87182617 C3.76594633 44.23448483 4.24674871 46.72212424 3 50 C2.505 48.515 2.505 48.515 2 47 C1.34 47.99 0.68 48.98 0 50 C-0.47993156 47.45847565 -0.95896727 44.91678778 -1.4375 42.375 C-1.57220703 41.66214844 -1.70691406 40.94929688 -1.84570312 40.21484375 C-1.97783203 39.51230469 -2.10996094 38.80976563 -2.24609375 38.0859375 C-2.36654053 37.4470459 -2.4869873 36.8081543 -2.61108398 36.14990234 C-2.73942627 35.44043457 -2.86776855 34.7309668 -3 34 C-3.26780273 32.56914062 -3.26780273 32.56914062 -3.54101562 31.109375 C-3.98940586 28.07176966 -4.11414862 25.23164309 -4.09765625 22.1640625 C-4.09443359 21.10058594 -4.09121094 20.03710938 -4.08789062 18.94140625 C-4.07951172 17.84699219 -4.07113281 16.75257813 -4.0625 15.625 C-4.05798828 14.50738281 -4.05347656 13.38976562 -4.04882812 12.23828125 C-4.03709244 9.49213196 -4.02067363 6.74609414 -4 4 C-3.67 4 -3.34 4 -3 4 C-2.67 10.6 -2.34 17.2 -2 24 C-1.93941406 22.51886719 -1.87882813 21.03773438 -1.81640625 19.51171875 C-1.73199685 17.57030266 -1.64734905 15.62889692 -1.5625 13.6875 C-1.50352539 12.22280273 -1.50352539 12.22280273 -1.44335938 10.72851562 C-1.40146484 9.79072266 -1.35957031 8.85292969 -1.31640625 7.88671875 C-1.27974854 7.02264404 -1.24309082 6.15856934 -1.20532227 5.26831055 C-1 3 -1 3 0 0 Z " fill="#65B6CC" transform="translate(14,134)"/>
<path d="M0 0 C1.32 0.33 2.64 0.66 4 1 C3.01 1 2.02 1 1 1 C1 7.6 1 14.2 1 21 C1.66 21 2.32 21 3 21 C3 15.72 3 10.44 3 5 C5.52560108 7.52560108 7.25901303 9.73048665 9.1875 12.6875 C9.71730469 13.49574219 10.24710938 14.30398437 10.79296875 15.13671875 C11.19128906 15.75160156 11.58960937 16.36648437 12 17 C11.67 17.66 11.34 18.32 11 19 C7 14.25 7 14.25 7 12 C6.34 12 5.68 12 5 12 C5 15.3 5 18.6 5 22 C1.7 22 -1.6 22 -5 22 C-4.34 21.67 -3.68 21.34 -3 21 C-3.33773437 20.05898437 -3.67546875 19.11796875 -4.0234375 18.1484375 C-4.47399278 16.89063734 -4.92451168 15.63282414 -5.375 14.375 C-5.81585938 13.14523438 -6.25671875 11.91546875 -6.7109375 10.6484375 C-7.84345711 7.44306381 -8.93692898 4.22895402 -10 1 C-9.34 1 -8.68 1 -8 1 C-5.69 6.94 -3.38 12.88 -1 19 C-0.67 12.73 -0.34 6.46 0 0 Z " fill="#B9E3EE" transform="translate(112,210)"/>
<path d="M0 0 C4.36547808 -0.29103187 7.79959411 0.12555191 12 1.375 C26.12550801 5.40267863 41.37757008 6.06910123 56 5 C56.33 4.67 56.66 4.34 57 4 C58.34015221 3.84417697 59.68758903 3.74955858 61.03515625 3.68359375 C61.84404297 3.64169922 62.65292969 3.59980469 63.48632812 3.55664062 C64.7615332 3.49766602 64.7615332 3.49766602 66.0625 3.4375 C67.34350586 3.37272461 67.34350586 3.37272461 68.65039062 3.30664062 C70.76672037 3.20023298 72.88333813 3.09958269 75 3 C75 3.33 75 3.66 75 4 C50.05354583 9.61044753 24.40198382 8.43127369 0 1 C0 0.67 0 0.34 0 0 Z " fill="#CDEFF7" transform="translate(107,279)"/>
<path d="M0 0 C1.2065625 0.0309375 1.2065625 0.0309375 2.4375 0.0625 C10.4375 17.26408103 10.4375 17.26408103 10.4375 23.0625 C9.1175 22.7325 7.7975 22.4025 6.4375 22.0625 C7.4275 22.0625 8.4175 22.0625 9.4375 22.0625 C9.19515625 21.49740723 8.9528125 20.93231445 8.703125 20.35009766 C7.61086709 17.79746992 6.52412255 15.24253141 5.4375 12.6875 C5.0559375 11.79804688 4.674375 10.90859375 4.28125 9.9921875 C3.9203125 9.14140625 3.559375 8.290625 3.1875 7.4140625 C2.85234375 6.62854004 2.5171875 5.84301758 2.171875 5.03369141 C1.4375 3.0625 1.4375 3.0625 1.4375 1.0625 C-1.65999911 1.71829907 -1.65999911 1.71829907 -2.63745117 4.01196289 C-2.95689697 4.8446167 -3.27634277 5.67727051 -3.60546875 6.53515625 C-3.95673828 7.43427734 -4.30800781 8.33339844 -4.66992188 9.25976562 C-5.20456055 10.67805664 -5.20456055 10.67805664 -5.75 12.125 C-6.11802734 13.07439453 -6.48605469 14.02378906 -6.86523438 15.00195312 C-7.7744635 17.35177906 -8.67299974 19.70515039 -9.5625 22.0625 C-8.5725 22.3925 -7.5825 22.7225 -6.5625 23.0625 C-9.5325 23.0625 -12.5025 23.0625 -15.5625 23.0625 C-14.5725 22.7325 -13.5825 22.4025 -12.5625 22.0625 C-12.5625 15.1325 -12.5625 8.2025 -12.5625 1.0625 C-12.2325 1.0625 -11.9025 1.0625 -11.5625 1.0625 C-11.5625 7.0025 -11.5625 12.9425 -11.5625 19.0625 C-10.9025 19.0625 -10.2425 19.0625 -9.5625 19.0625 C-9.500625 18.134375 -9.43875 17.20625 -9.375 16.25 C-8.66027734 11.0549263 -6.02156824 0.14686752 0 0 Z " fill="#D7F3FA" transform="translate(141.5625,208.9375)"/>
<path d="M0 0 C25.76376337 -0.41277905 25.76376337 -0.41277905 38 2 C37.01 2.66 36.02 3.32 35 4 C35.99 4.66 36.98 5.32 38 6 C28.1 5.34 18.2 4.68 8 4 C8 3.67 8 3.34 8 3 C14.435 2.505 14.435 2.505 21 2 C14.07 1.67 7.14 1.34 0 1 C0 0.67 0 0.34 0 0 Z " fill="#6DB9CE" transform="translate(137,10)"/>
<path d="M0 0 C0.66 0.33 1.32 0.66 2 1 C2.4140625 4.16015625 2.4140625 4.16015625 2.625 8.0625 C2.69976562 9.35285156 2.77453125 10.64320313 2.8515625 11.97265625 C2.90054688 12.97167969 2.94953125 13.97070312 3 15 C3.19335938 14.44570312 3.38671875 13.89140625 3.5859375 13.3203125 C3.97652344 12.23363281 3.97652344 12.23363281 4.375 11.125 C4.63023438 10.40570313 4.88546875 9.68640625 5.1484375 8.9453125 C6 7 6 7 8 5 C7.39363767 10.76044212 5.24341721 15.72014369 3 21 C3.99 21 4.98 21 6 21 C6.33 20.01 6.66 19.02 7 18 C7 19.32 7 20.64 7 22 C4.03 22 1.06 22 -2 22 C-1.34 21.67 -0.68 21.34 0 21 C0 14.07 0 7.14 0 0 Z " fill="#D2EFF6" transform="translate(88,210)"/>
<path d="M0 0 C0.33 1.32 0.66 2.64 1 4 C3.31 4 5.62 4 8 4 C8 3.34 8 2.68 8 2 C11 3 11 3 12.1875 5.3125 C13 8 13 8 13 12 C12.34 12 11.68 12 11 12 C10.34 10.02 9.68 8.04 9 6 C5.7 6 2.4 6 -1 6 C-1.33 7.98 -1.66 9.96 -2 12 C-2.99 12 -3.98 12 -5 12 C-4.37343743 7.73937456 -3.1323664 3.1323664 0 0 Z " fill="#60AEC4" transform="translate(96,219)"/>
<path d="M0 0 C0.33 0 0.66 0 1 0 C2.23839599 6.65637843 2.09139136 13.2471936 2 20 C3.32 20 4.64 20 6 20 C5.97679687 18.72382813 5.95359375 17.44765625 5.9296875 16.1328125 C5.91093171 14.4635475 5.89273131 12.7942762 5.875 11.125 C5.85824219 10.28324219 5.84148437 9.44148437 5.82421875 8.57421875 C5.81777344 7.76855469 5.81132812 6.96289062 5.8046875 6.1328125 C5.79421387 5.38918457 5.78374023 4.64555664 5.77294922 3.87939453 C6 2 6 2 8 0 C7.67 7.26 7.34 14.52 7 22 C4.69 22 2.38 22 0 22 C0 14.74 0 7.48 0 0 Z " fill="#6BBACF" transform="translate(150,143)"/>
<path d="M0 0 C0.33 0 0.66 0 1 0 C1.125 7.625 1.125 7.625 0 11 C-0.14939774 12.91765594 -0.24810283 14.83946522 -0.31640625 16.76171875 C-0.35830078 17.87998047 -0.40019531 18.99824219 -0.44335938 20.15039062 C-0.48267578 21.31763672 -0.52199219 22.48488281 -0.5625 23.6875 C-0.60568359 24.86634766 -0.64886719 26.04519531 -0.69335938 27.25976562 C-0.79951176 30.17305883 -0.90156242 33.08643757 -1 36 C-4.03174808 30.90433982 -3.32896945 25.44851341 -3.3125 19.6875 C-3.32861328 18.57181641 -3.34472656 17.45613281 -3.36132812 16.30664062 C-3.36501448 10.08775663 -3.001656 5.48851611 0 0 Z " fill="#4DADC7" transform="translate(14,126)"/>
<path d="M0 0 C0.3449145 1.33038449 0.67516582 2.66457061 1 4 C1.309375 5.06734375 1.309375 5.06734375 1.625 6.15625 C2.11800419 9.89486509 1.3788711 13.18225406 0.5625 16.8125 C0.41490234 17.50537109 0.26730469 18.19824219 0.11523438 18.91210938 C-0.24775612 20.60996815 -0.62268223 22.30526763 -1 24 C-1.66 23.34 -2.32 22.68 -3 22 C-3.66 23.98 -4.32 25.96 -5 28 C-6.09860754 24.6749642 -5.8767869 22.49758309 -5.0390625 19.12109375 C-4.81476562 18.20005859 -4.59046875 17.27902344 -4.359375 16.33007812 C-4.11703125 15.37552734 -3.8746875 14.42097656 -3.625 13.4375 C-3.39039063 12.47908203 -3.15578125 11.52066406 -2.9140625 10.53320312 C-2.03702936 6.9777307 -1.15844705 3.47534116 0 0 Z " fill="#67B7CC" transform="translate(17,105)"/>
<path d="M0 0 C2.64 0 5.28 0 8 0 C8.33 0.99 8.66 1.98 9 3 C9.99 3 10.98 3 12 3 C12.33 2.01 12.66 1.02 13 0 C12.47731534 2.76276177 11.89130413 5.3260876 11 8 C7.37 7.01 3.74 6.02 0 5 C0 3.35 0 1.7 0 0 Z " fill="#DEF3F8" transform="translate(221,213)"/>
<path d="M0 0 C5.94552084 10.19232144 5.13739603 23.16189338 5.0625 34.5 C5.05798828 35.799375 5.05347656 37.09875 5.04882812 38.4375 C5.0371092 41.62504825 5.02070219 44.81249955 5 48 C4.67 48 4.34 48 4 48 C3.97494385 47.25314941 3.9498877 46.50629883 3.92407227 45.73681641 C3.80831787 42.36602733 3.68549872 38.99553217 3.5625 35.625 C3.52318359 34.449375 3.48386719 33.27375 3.44335938 32.0625 C3.40146484 30.94101563 3.35957031 29.81953125 3.31640625 28.6640625 C3.27974854 27.62717285 3.24309082 26.5902832 3.20532227 25.52197266 C3.15835777 23.00574834 3.15835777 23.00574834 2 21 C1.68351609 17.6593365 1.48871475 14.31782389 1.28125 10.96875 C1.18711938 8.0735199 1.18711938 8.0735199 0 6 C-0.039992 4.00039988 -0.04346799 1.99952758 0 0 Z " fill="#CDEFF7" transform="translate(281,116)"/>
<path d="M0 0 C0.33 0 0.66 0 1 0 C1 5.61 1 11.22 1 17 C0.01 16.01 -0.98 15.02 -2 14 C-3.485 16.475 -3.485 16.475 -5 19 C-6.32 18.67 -7.64 18.34 -9 18 C-8.67 17.34 -8.34 16.68 -8 16 C-7.01 16.33 -6.02 16.66 -5 17 C-4.89042969 16.443125 -4.78085938 15.88625 -4.66796875 15.3125 C-3.55724752 9.96658969 -2.02774474 5.06936184 0 0 Z " fill="#C4E9F3" transform="translate(85,214)"/>
<path d="M0 0 C0.33 0 0.66 0 1 0 C1.34781014 4.63746858 0.44895394 7.7673604 -1.265625 11.96484375 C-2.34553688 14.95757827 -2.67113258 17.8428728 -3 21 C-3.66 21 -4.32 21 -5 21 C-5 25.62 -5 30.24 -5 35 C-5.66 35 -6.32 35 -7 35 C-7.73549135 22.98697466 -4.09765467 11.16974902 0 0 Z " fill="#D3F2F9" transform="translate(22,102)"/>
<path d="M0 0 C2.45391569 3.68087353 2.22802759 6.44355588 2.125 10.6875 C2.11597656 11.38939453 2.10695312 12.09128906 2.09765625 12.81445312 C2.07413704 14.54311525 2.03826713 16.27160145 2 18 C6.29 18 10.58 18 15 18 C15 18.66 15 19.32 15 20 C10.05 20 5.1 20 0 20 C0 13.4 0 6.8 0 0 Z " fill="#5FA9BD" transform="translate(177,211)"/>
<path d="M0 0 C0.33 0 0.66 0 1 0 C1 6.93 1 13.86 1 21 C1.99 21 2.98 21 4 21 C4 16.05 4 11.1 4 6 C6.46301423 8.46301423 6.76766521 10.27360036 7.625 13.625 C7.88539062 14.62789062 8.14578125 15.63078125 8.4140625 16.6640625 C8.60742188 17.43492187 8.80078125 18.20578125 9 19 C8.34 18.67 7.68 18.34 7 18 C7 17.01 7 16.02 7 15 C6.34 15 5.68 15 5 15 C5 17.31 5 19.62 5 22 C3.35 22 1.7 22 0 22 C0 14.74 0 7.48 0 0 Z " fill="#D1F3FA" transform="translate(67,210)"/>
<path d="M0 0 C2.97 0 5.94 0 9 0 C9.38218767 1.65614657 9.71395102 3.32457024 10 5 C9 6 9 6 6.93359375 6.09765625 C6.10988281 6.08605469 5.28617188 6.07445312 4.4375 6.0625 C3.61121094 6.05347656 2.78492188 6.04445312 1.93359375 6.03515625 C1.29550781 6.02355469 0.65742188 6.01195312 0 6 C0 4.02 0 2.04 0 0 Z " fill="#E9F8FB" transform="translate(200,213)"/>
<path d="M0 0 C0 1.98 0 3.96 0 6 C-3.3146667 8.02907167 -5.4315979 8.12742133 -9.25 7.625 C-10.14203125 7.51414063 -11.0340625 7.40328125 -11.953125 7.2890625 C-12.62859375 7.19367188 -13.3040625 7.09828125 -14 7 C-14 4.36 -14 1.72 -14 -1 C-12.41870971 -1.22331199 -10.83478911 -1.42804644 -9.25 -1.625 C-8.36828125 -1.74101562 -7.4865625 -1.85703125 -6.578125 -1.9765625 C-3.77140122 -2.00207817 -2.36615134 -1.44843844 0 0 Z M-13 0 C-13 1.98 -13 3.96 -13 6 C-10.03 6 -7.06 6 -4 6 C-3.61781233 4.34385343 -3.28604898 2.67542976 -3 1 C-4.00836062 -0.23267348 -4.00836062 -0.23267348 -6.06640625 -0.09765625 C-7.30197266 -0.08025391 -7.30197266 -0.08025391 -8.5625 -0.0625 C-9.80193359 -0.04896484 -9.80193359 -0.04896484 -11.06640625 -0.03515625 C-12.02353516 -0.01775391 -12.02353516 -0.01775391 -13 0 Z " fill="#7EC1D3" transform="translate(213,213)"/>
<path d="M0 0 C2.52560108 2.52560108 4.25901303 4.73048665 6.1875 7.6875 C6.71730469 8.49574219 7.24710937 9.30398437 7.79296875 10.13671875 C8.39044922 11.05904297 8.39044922 11.05904297 9 12 C8.67 12.66 8.34 13.32 8 14 C4 9.25 4 9.25 4 7 C3.34 7 2.68 7 2 7 C2 10.3 2 13.6 2 17 C1.34 17 0.68 17 0 17 C0 11.39 0 5.78 0 0 Z " fill="#CDF1FB" transform="translate(115,215)"/>
<path d="M0 0 C0.66 0 1.32 0 2 0 C2 6.93 2 13.86 2 21 C0.68 20.67 -0.64 20.34 -2 20 C-2 18.68 -2 17.36 -2 16 C-1.34 16 -0.68 16 0 16 C0 10.72 0 5.44 0 0 Z " fill="#65ABBD" transform="translate(127,210)"/>
<path d="M0 0 C0 0.33 0 0.66 0 1 C-0.56920166 1.11069824 -1.13840332 1.22139648 -1.72485352 1.33544922 C-4.33802403 1.84550444 -6.95025665 2.36021829 -9.5625 2.875 C-10.45775391 3.04902344 -11.35300781 3.22304688 -12.27539062 3.40234375 C-16.21889631 4.18237784 -20.11258597 4.98269566 -23.96875 6.125 C-26.82796535 6.95034051 -29.04767141 7.17892901 -32 7 C-27.86305224 4.24203483 -23.61335405 3.50693543 -18.8125 2.375 C-17.89146484 2.14554688 -16.97042969 1.91609375 -16.02148438 1.6796875 C-10.53334325 0.37094696 -5.63963811 -0.25182873 0 0 Z " fill="#CAEDF6" transform="translate(137,15)"/>
<path d="M0 0 C0.99 0.33 1.98 0.66 3 1 C3.94921875 3.28515625 3.94921875 3.28515625 4.6875 6.0625 C5.06455078 7.44115234 5.06455078 7.44115234 5.44921875 8.84765625 C5.63097656 9.55792969 5.81273437 10.26820313 6 11 C5.01 11 4.02 11 3 11 C2.34 9.35 1.68 7.7 1 6 C-0.134375 5.87625 -1.26875 5.7525 -2.4375 5.625 C-3.613125 5.41875 -4.78875 5.2125 -6 5 C-6.33 4.34 -6.66 3.68 -7 3 C-4.69 3 -2.38 3 0 3 C0 2.01 0 1.02 0 0 Z " fill="#5FACC1" transform="translate(145,220)"/>
<path d="M0 0 C0.99 0 1.98 0 3 0 C3 6.6 3 13.2 3 20 C2.34 20 1.68 20 1 20 C0.67 13.4 0.34 6.8 0 0 Z " fill="#54ADC5" transform="translate(85,211)"/>
<path d="M0 0 C-0.85722656 0.29132813 -1.71445313 0.58265625 -2.59765625 0.8828125 C-9.58384049 3.38744225 -14.73845016 5.73845016 -20 11 C-20.33 10.34 -20.66 9.68 -21 9 C-18.0096424 4.64639114 -15.43102186 2.94585899 -10.5 1.125 C-9.3759375 0.69445312 -8.251875 0.26390625 -7.09375 -0.1796875 C-4.11137337 -0.97046918 -2.8123646 -1.11667418 0 0 Z " fill="#62B5CB" transform="translate(130,98)"/>
<path d="M0 0 C2.75495753 2.36139217 3.69238528 4.41052654 4.6875 7.875 C4.93886719 8.71804687 5.19023437 9.56109375 5.44921875 10.4296875 C6.00715419 13.03338621 6.09988136 15.34600969 6 18 C1.98030905 13.98030905 0.1346621 7.95260044 -0.25 2.375 C-0.1675 1.59125 -0.085 0.8075 0 0 Z " fill="#4DAEC8" transform="translate(279,102)"/>
<path d="M0 0 C1.32 0.33 2.64 0.66 4 1 C3.01 1 2.02 1 1 1 C0.8453125 2.7015625 0.8453125 2.7015625 0.6875 4.4375 C0.10889499 9.19397351 -1.35073697 13.51898346 -3 18 C-4.32 18 -5.64 18 -7 18 C-6.72414063 17.48953125 -6.44828125 16.9790625 -6.1640625 16.453125 C-4.66736283 13.29900623 -3.52560256 10.04125847 -2.375 6.75 C-2.14554687 6.1003125 -1.91609375 5.450625 -1.6796875 4.78125 C-1.11747537 3.18831562 -0.55841997 1.59426771 0 0 Z " fill="#71B6C9" transform="translate(84,210)"/>
<path d="M0 0 C2.18975773 3.28463659 2.99806563 6.20696275 4 10 C1.69 10 -0.62 10 -3 10 C-2.69201674 8.51988629 -2.378482 7.04092675 -2.0625 5.5625 C-1.88847656 4.73878906 -1.71445313 3.91507813 -1.53515625 3.06640625 C-1 1 -1 1 0 0 Z " fill="#C7EEF8" transform="translate(141,213)"/>
<path d="M0 0 C0.33 0 0.66 0 1 0 C1.05449838 1.72880982 1.09301688 3.45812712 1.125 5.1875 C1.14820313 6.15042969 1.17140625 7.11335937 1.1953125 8.10546875 C0.98896101 11.1635978 0.38418613 13.27518604 -1 16 C-1.66 16.33 -2.32 16.66 -3 17 C-3.34548714 10.66606918 -2.29342747 5.89738492 0 0 Z " fill="#53AEC7" transform="translate(286,168)"/>
<path d="M0 0 C0 0.66 0 1.32 0 2 C1.32 2.33 2.64 2.66 4 3 C0.7 3.66 -2.6 4.32 -6 5 C-5.67 4.34 -5.34 3.68 -5 3 C-8.96 3 -12.92 3 -17 3 C-17 2.67 -17 2.34 -17 2 C-14.91727106 1.66291092 -12.83378963 1.33046884 -10.75 1 C-9.58984375 0.814375 -8.4296875 0.62875 -7.234375 0.4375 C-4 0 -4 0 0 0 Z " fill="#64B4C9" transform="translate(181,283)"/>
<path d="M0 0 C0.33 0 0.66 0 1 0 C1 5.28 1 10.56 1 16 C0.34 16 -0.32 16 -1 16 C-1.33 16.99 -1.66 17.98 -2 19 C-3.32 16.69 -4.64 14.38 -6 12 C-5.34 11.01 -4.68 10.02 -4 9 C-3.01 10.65 -2.02 12.3 -1 14 C-0.67 9.38 -0.34 4.76 0 0 Z " fill="#7DC4D7" transform="translate(126,210)"/>
<path d="M0 0 C2.76223278 2.76223278 2.57856291 5.20706617 3 9 C1.02 9 -0.96 9 -3 9 C-2.5020163 5.26512223 -2.12508244 3.18762365 0 0 Z " fill="#CBF1F9" transform="translate(100,214)"/>
<path d="M0 0 C0.33 0 0.66 0 1 0 C1 5.94 1 11.88 1 18 C1.66 18 2.32 18 3 18 C3 18.99 3 19.98 3 21 C3.99 21.33 4.98 21.66 6 22 C3.03 22 0.06 22 -3 22 C-2.01 21.67 -1.02 21.34 0 21 C0 14.07 0 7.14 0 0 Z " fill="#C3EBF6" transform="translate(129,210)"/>
<path d="M0 0 C6.51791392 -0.3540919 11.17521449 -0.03901852 17 3 C17 3.33 17 3.66 17 4 C10.54107286 4.40368295 5.93891422 3.5915262 0 1 C0 0.67 0 0.34 0 0 Z " fill="#53AEC7" transform="translate(169,13)"/>
<path d="M0 0 C2.64 0 5.28 0 8 0 C8 2.64 8 5.28 8 8 C6.68 8.33 5.36 8.66 4 9 C4.66 6.69 5.32 4.38 6 2 C4.02 2 2.04 2 0 2 C0 1.34 0 0.68 0 0 Z " fill="#5DACC1" transform="translate(164,221)"/>
<path d="M0 0 C2.1640625 -0.29296875 2.1640625 -0.29296875 4.625 -0.1875 C5.44226563 -0.16042969 6.25953125 -0.13335937 7.1015625 -0.10546875 C8.04128906 -0.05326172 8.04128906 -0.05326172 9 0 C9.66 1.98 10.32 3.96 11 6 C10.67 5.525625 10.34 5.05125 10 4.5625 C6.90186733 2.14208385 3.87973208 2.31801083 0 2 C-0.33 3.32 -0.66 4.64 -1 6 C-1.33 5.01 -1.66 4.02 -2 3 C-1.34 2.01 -0.68 1.02 0 0 Z " fill="#CFF2FA" transform="translate(137,225)"/>
<path d="M0 0 C1.47906892 -0.02689216 2.95827483 -0.04634621 4.4375 -0.0625 C5.26121094 -0.07410156 6.08492187 -0.08570313 6.93359375 -0.09765625 C9 0 9 0 10 1 C11.670625 1.185625 11.670625 1.185625 13.375 1.375 C16.90207504 1.98311639 17.94362388 2.21784407 20 5 C15.50593041 4.28786282 11.07140387 3.40228575 6.625 2.4375 C5.37976563 2.16808594 4.13453125 1.89867187 2.8515625 1.62109375 C1.44003906 1.31365234 1.44003906 1.31365234 0 1 C0 0.67 0 0.34 0 0 Z " fill="#D4F2F9" transform="translate(171,11)"/>
<path d="M0 0 C-0.99 0.495 -0.99 0.495 -2 1 C-1.01 1.66 -0.02 2.32 1 3 C-1.64 3.66 -4.28 4.32 -7 5 C-6.67 4.01 -6.34 3.02 -6 2 C-8.64 2.33 -11.28 2.66 -14 3 C-9.7368213 0.15788087 -5.03577274 -2.0143091 0 0 Z " fill="#69B8CD" transform="translate(118,15)"/>
<path d="M0 0 C0.33 0 0.66 0 1 0 C1.02689216 1.47906892 1.04634621 2.95827483 1.0625 4.4375 C1.07410156 5.26121094 1.08570313 6.08492187 1.09765625 6.93359375 C1 9 1 9 0 10 C-0.2165625 11.7325 -0.2165625 11.7325 -0.4375 13.5 C-0.623125 14.655 -0.80875 15.81 -1 17 C-1.66 17.33 -2.32 17.66 -3 18 C-2.51679152 11.7945858 -1.66681876 6.00054754 0 0 Z " fill="#D6F3FA" transform="translate(288,171)"/>
<path d="M0 0 C1.98 0 3.96 0 6 0 C4.68 0.33 3.36 0.66 2 1 C2 3.97 2 6.94 2 10 C1.01 10.495 1.01 10.495 0 11 C-0.66 10.34 -1.32 9.68 -2 9 C-1.34 9 -0.68 9 0 9 C0 6.03 0 3.06 0 0 Z " fill="#C9EDF6" transform="translate(199,222)"/>
<path d="M0 0 C3 0 3 0 4.9375 1.875 C5.618125 2.57625 6.29875 3.2775 7 4 C9.13309192 5.23512079 9.13309192 5.23512079 11 6 C5.67988107 6.34886026 5.67988107 6.34886026 3 6 C1 4.125 1 4.125 0 2 C0 1.34 0 0.68 0 0 Z " fill="#65AFC3" transform="translate(217,225)"/>
<path d="M0 0 C3.3 0 6.6 0 10 0 C10 0.66 10 1.32 10 2 C8.906875 2.12375 7.81375 2.2475 6.6875 2.375 C2.92618198 2.75464801 2.92618198 2.75464801 0 5 C0 3.35 0 1.7 0 0 Z " fill="#D7F6FC" transform="translate(95,225)"/>
<path d="M0 0 C1.32 0.33 2.64 0.66 4 1 C3.01 1 2.02 1 1 1 C1 1.66 1 2.32 1 3 C1.66 3.33 2.32 3.66 3 4 C2.01 5.98 1.02 7.96 0 10 C-0.99 10 -1.98 10 -3 10 C-2.01 6.7 -1.02 3.4 0 0 Z " fill="#72BACC" transform="translate(98,210)"/>
<path d="M0 0 C0.33 0.99 0.66 1.98 1 3 C-0.27713959 4.44087544 -1.55603467 5.88032265 -2.8515625 7.3046875 C-4.74012473 10.09256508 -4.32320349 12.76796512 -4 16 C-4.66 15.67 -5.32 15.34 -6 15 C-6.7230444 8.13107822 -6.7230444 8.13107822 -4.6640625 4.91015625 C-3.16989578 3.19502121 -1.64681923 1.56839927 0 0 Z " fill="#D4F2FA" transform="translate(172,77)"/>
<path d="M0 0 C-0.33 0.99 -0.66 1.98 -1 3 C-5.455 3.495 -5.455 3.495 -10 4 C-8 1 -8 1 -6.125 0.3125 C-4 0 -4 0 0 0 Z " fill="#4CAEC8" transform="translate(112,17)"/>
<path d="M0 0 C0 0.66 0 1.32 0 2 C-4.455 2.495 -4.455 2.495 -9 3 C-9 2.01 -9 1.02 -9 0 C-2.25 -1.125 -2.25 -1.125 0 0 Z " fill="#70B6C9" transform="translate(169,229)"/>
<path d="M0 0 C0.99 0 1.98 0 3 0 C3 0.99 3 1.98 3 3 C2.34 3 1.68 3 1 3 C1 8.28 1 13.56 1 19 C0.67 19 0.34 19 0 19 C0 12.73 0 6.46 0 0 Z " fill="#4EADC5" transform="translate(69,211)"/>
<path d="M0 0 C0 0.66 0 1.32 0 2 C0.99 2.33 1.98 2.66 3 3 C1.35 3.33 -0.3 3.66 -2 4 C-2 3.34 -2 2.68 -2 2 C-2.9075 2.350625 -3.815 2.70125 -4.75 3.0625 C-8.00591313 4.00170571 -8.92749994 3.95514676 -12 3 C-10.37604003 2.49663233 -8.75079459 1.99741024 -7.125 1.5 C-6.22007812 1.2215625 -5.31515625 0.943125 -4.3828125 0.65625 C-2 0 -2 0 0 0 Z " fill="#69B8CD" transform="translate(200,277)"/>
<path d="M0 0 C0.33 0.99 0.66 1.98 1 3 C-1.64 5.97 -4.28 8.94 -7 12 C-7.66 11.67 -8.32 11.34 -9 11 C-6.03 7.37 -3.06 3.74 0 0 Z " fill="#D5F2FA" transform="translate(262,233)"/>
<path d="M0 0 C0.33 0 0.66 0 1 0 C1 5.94 1 11.88 1 18 C0.01 17.67 -0.98 17.34 -2 17 C-2 16.01 -2 15.02 -2 14 C-1.34 14 -0.68 14 0 14 C0 9.38 0 4.76 0 0 Z " fill="#54ABC3" transform="translate(127,212)"/>
<path d="M0 0 C0.66 0.66 1.32 1.32 2 2 C2.66 1.67 3.32 1.34 4 1 C3.34 3.64 2.68 6.28 2 9 C1.01 8.34 0.02 7.68 -1 7 C-0.67 4.69 -0.34 2.38 0 0 Z " fill="#6BB8CD" transform="translate(282,182)"/>
<path d="M0 0 C0 0.66 0 1.32 0 2 C-0.99 2 -1.98 2 -3 2 C-3.268125 2.639375 -3.53625 3.27875 -3.8125 3.9375 C-5 6 -5 6 -8 7 C-8 7.66 -8 8.32 -8 9 C-8.66 8.67 -9.32 8.34 -10 8 C-9.04578192 6.85073734 -8.08647955 5.70569459 -7.125 4.5625 C-6.59132812 3.92441406 -6.05765625 3.28632812 -5.5078125 2.62890625 C-3.68057607 0.65492285 -2.70796331 0 0 0 Z " fill="#67B7CD" transform="translate(148,37)"/>
<path d="M0 0 C2.18975773 3.28463659 2.99806563 6.20696275 4 10 C3.01 10 2.02 10 1 10 C-0.60725635 6.78548731 -0.05748185 3.56387464 0 0 Z " fill="#6AB4C8" transform="translate(147,221)"/>
<path d="M0 0 C1 3 1 3 0.00390625 5.26171875 C-0.47175781 6.06222656 -0.94742188 6.86273438 -1.4375 7.6875 C-2.14712891 8.89986328 -2.14712891 8.89986328 -2.87109375 10.13671875 C-3.24363281 10.75160156 -3.61617187 11.36648437 -4 12 C-4.66 12 -5.32 12 -6 12 C-4.43358249 7.69235185 -2.31663844 3.93828536 0 0 Z " fill="#D3F1F9" transform="translate(34,78)"/>
<path d="M0 0 C3.67230705 3.07999946 4.56802365 5.2482602 5 10 C1.32769295 6.92000054 0.43197635 4.7517398 0 0 Z " fill="#66B3C7" transform="translate(116,212)"/>
<path d="M0 0 C1.9451 2.91765 2.45276317 4.62537285 3 8 C2.01 7.67 1.02 7.34 0 7 C-0.33 7.99 -0.66 8.98 -1 10 C-2.23076923 4.58461538 -2.23076923 4.58461538 -1.0625 1.625 C-0.5365625 0.820625 -0.5365625 0.820625 0 0 Z " fill="#68B7CD" transform="translate(19,188)"/>
<path d="M0 0 C0.33 0 0.66 0 1 0 C1 2.64 1 5.28 1 8 C0.34 7.67 -0.32 7.34 -1 7 C-1.66 7.66 -2.32 8.32 -3 9 C-2.5020163 5.26512223 -2.12508244 3.18762365 0 0 Z " fill="#5DB2C8" transform="translate(16,114)"/>
<path d="M0 0 C0.66 0.66 1.32 1.32 2 2 C1.625 5.125 1.625 5.125 1 8 C0.01 8 -0.98 8 -2 8 C-1.47731534 5.23723823 -0.89130413 2.6739124 0 0 Z " fill="#6DB4C7" transform="translate(93,223)"/>
<path d="M0 0 C0.6875 1.6875 0.6875 1.6875 1 4 C-0.4375 6.75 -0.4375 6.75 -2 9 C-3.21185923 5.36442231 -2.59260392 4.36216382 -1 1 C-0.67 0.67 -0.34 0.34 0 0 Z " fill="#4FADC6" transform="translate(20,103)"/>
<path d="M0 0 C0.33 0.66 0.66 1.32 1 2 C1.66 2 2.32 2 3 2 C2.34 3.98 1.68 5.96 1 8 C0.01 7.34 -0.98 6.68 -2 6 C-1.34 4.02 -0.68 2.04 0 0 Z " fill="#65B6CB" transform="translate(29,79)"/>
<path d="M0 0 C0.66 0 1.32 0 2 0 C2 1.32 2 2.64 2 4 C2.99 4 3.98 4 5 4 C5 4.99 5 5.98 5 7 C3.68 6.67 2.36 6.34 1 6 C0.67 4.02 0.34 2.04 0 0 Z " fill="#60AFC4" transform="translate(75,224)"/>
<path d="M0 0 C5.75 0.75 5.75 0.75 8 3 C4.23375329 4.25541557 2.62811066 3.37061958 -1 2 C-0.67 1.34 -0.34 0.68 0 0 Z " fill="#5EAEC3" transform="translate(224,219)"/>
<path d="M0 0 C0.33 0 0.66 0 1 0 C1.25 2.75 1.25 2.75 1 6 C-1 8.375 -1 8.375 -3 10 C-2.01 6.7 -1.02 3.4 0 0 Z " fill="#C5EAF3" transform="translate(22,102)"/>
<path d="M0 0 C0.33 0.66 0.66 1.32 1 2 C1.66 2 2.32 2 3 2 C2.34 3.32 1.68 4.64 1 6 C0.34 6 -0.32 6 -1 6 C-1.99 6.495 -1.99 6.495 -3 7 C-1.125 2.25 -1.125 2.25 0 0 Z " fill="#67B6CC" transform="translate(269,215)"/>
<path d="M0 0 C-0.28875 0.515625 -0.5775 1.03125 -0.875 1.5625 C-2.28780027 4.62356725 -3.1248517 7.74944918 -4 11 C-4.33 11 -4.66 11 -5 11 C-5.36637589 4.64948454 -5.36637589 4.64948454 -3.625 1.5625 C-2 0 -2 0 0 0 Z " fill="#67727E" transform="translate(148,174)"/>
<path d="M0 0 C2.97 0.33 5.94 0.66 9 1 C9.33 1.99 9.66 2.98 10 4 C6.7 3.01 3.4 2.02 0 1 C0 0.67 0 0.34 0 0 Z " fill="#CCEEF6" transform="translate(180,96)"/>
</svg>
